<svg xmlns="http://www.w3.org/2000/svg" version="1.1" xmlns:xlink="http://www.w3.org/1999/xlink" xmlns:svgjs="http://svgjs.dev/svgjs" width="2000" height="1247" viewBox="0 0 2000 1247"><g transform="matrix(1,0,0,1,-1.2121212121212466,0.504858299595071)"><svg viewBox="0 0 396 247" data-background-color="#ffffff" preserveAspectRatio="xMidYMid meet" height="1247" width="2000" xmlns="http://www.w3.org/2000/svg" xmlns:xlink="http://www.w3.org/1999/xlink"><defs></defs><g id="tight-bounds" transform="matrix(1,0,0,1,0.2400000000000091,-0.09999999999999432)"><svg viewBox="0 0 395.52 247.2" height="247.2" width="395.52"><g><svg></svg></g><g><svg viewBox="0 0 395.52 247.2" height="247.2" width="395.52"><g><path d="M55.039 247.2l26.403-45.732 232.636 0 26.403 45.732zM197.76 0l26.403 45.732-52.806 0z" fill="#ffffff" fill-rule="nonzero" stroke="none" stroke-width="1" stroke-linecap="butt" stroke-linejoin="miter" stroke-miterlimit="10" stroke-dasharray="" stroke-dashoffset="0" font-family="none" font-weight="none" font-size="none" text-anchor="none" style="mix-blend-mode: normal" data-fill-palette-color="tertiary"></path></g><g transform="matrix(1,0,0,1,56.99670332515598,67.97999999999999)"><svg viewBox="0 0 281.526593349688 111.24" height="111.24" width="281.526593349688"><g><svg viewBox="0 0 397.4975999999999 157.0637874663466" height="111.24" width="281.526593349688"><g><rect width="397.4975999999999" height="2.730726948090417" x="0" y="84.73723116699328" fill="#ffffff" opacity="1" stroke-width="0" stroke="transparent" fill-opacity="1" class="rect-ab-0" data-fill-palette-color="primary" rx="1%" id="ab-0" data-palette-color="#1e90ff"></rect></g><g><rect width="397.4975999999999" height="2.730726948090417" x="0" y="91.04220804713923" fill="#ffffff" opacity="1" stroke-width="0" stroke="transparent" fill-opacity="1" class="rect-ab-1" data-fill-palette-color="primary" rx="1%" id="ab-1" data-palette-color="#1e90ff"></rect></g><g transform="matrix(1,0,0,1,0.9887999999999693,100.92143485934069)"><svg viewBox="0 0 395.52 56.142352607005954" height="56.142352607005954" width="395.52"><g><svg viewBox="0 0 395.52 56.142352607005954" height="56.142352607005954" width="395.52"><g><svg viewBox="0 0 395.52 30.280502313284867" height="30.280502313284867" width="395.52"><g transform="matrix(1,0,0,1,0,0)"><svg width="395.52" viewBox="1.1 -34.3 453.85999999999996 34.75" height="30.280502313284867" data-palette-color="#1e90ff"><path d="M23.9-33.7L23.9-29.4 15.05-29.4 15.05 0 9.9 0 9.9-29.4 1.1-29.4 1.1-33.7 23.9-33.7ZM36.65-14.25L36.65-14.25 36.1-12.55 46.9-12.55 46.35-14.25Q44.45-20.15 43.25-24.03 42.05-27.9 41.8-28.85L41.8-28.85 41.55-29.8Q41-27.45 36.65-14.25ZM34.7-8.25L32 0 26.55 0 38.2-33.7 44.95-33.7 56.45 0 50.95 0 48.3-8.25 34.7-8.25ZM93.89-9.2L93.89-9.2Q93.89-4.75 90.74-2.2 87.59 0.35 82.59 0.35L82.59 0.35Q77.04 0.35 73.39-1.8L73.39-1.8 73.39-7.15Q77.34-4.2 82.54-4.2L82.54-4.2Q85.29-4.2 86.89-5.48 88.49-6.75 88.49-9L88.49-9Q88.49-10.35 87.54-11.48 86.59-12.6 85.49-13.18 84.39-13.75 82.19-14.75L82.19-14.75Q80.89-15.35 80.37-15.6 79.84-15.85 78.64-16.5 77.44-17.15 76.87-17.6 76.29-18.05 75.44-18.85 74.59-19.65 74.22-20.45 73.84-21.25 73.52-22.33 73.19-23.4 73.19-24.65L73.19-24.65Q73.19-28.95 76.32-31.45 79.44-33.95 84.39-33.95L84.39-33.95Q88.94-33.95 92.14-32.35L92.14-32.35 92.14-27.25Q88.79-29.35 84.54-29.35L84.54-29.35Q81.79-29.35 80.22-28.13 78.64-26.9 78.64-24.9 78.64-22.9 80.19-21.7 81.74-20.5 84.94-19.1L84.94-19.1Q87.04-18.2 88.22-17.55 89.39-16.9 90.92-15.73 92.44-14.55 93.17-12.93 93.89-11.3 93.89-9.2ZM124.39-6.85L124.39-1.65Q121.29 0.4 115.79 0.4L115.79 0.4Q108.24 0.4 103.44-4.3 98.64-9 98.64-16.9L98.64-16.9Q98.64-24.55 103.47-29.35 108.29-34.15 115.69-34.15L115.69-34.15Q121.09-34.15 124.34-32.3L124.34-32.3 124.34-27.25Q122.14-28.45 120.37-28.93 118.59-29.4 115.84-29.4L115.84-29.4Q110.79-29.4 107.42-25.98 104.04-22.55 104.04-16.9L104.04-16.9Q104.04-11.15 107.39-7.75 110.74-4.35 116.24-4.35L116.24-4.35Q121.09-4.35 124.39-6.85L124.39-6.85ZM155.69-33.7L155.69 0 150.54 0 150.54-14.75 135.39-14.75 135.39 0 130.24 0 130.24-33.7 135.39-33.7 135.39-19.2 150.54-19.2 150.54-33.7 155.69-33.7ZM182.49-4.3L182.49 0 163.04 0 163.04-33.7 182.24-33.7 182.24-29.4 168.19-29.4 168.19-19 180.64-19 180.64-14.7 168.19-14.7 168.19-4.3 182.49-4.3ZM199.33 0L199.33 0 188.73 0 188.73-33.7 199.23-33.7Q206.73-33.7 211.53-29.05 216.33-24.4 216.33-17.2L216.33-17.2Q216.33-9.7 211.81-4.85 207.28 0 199.33 0ZM199.13-29.3L199.13-29.3 193.98-29.3 193.98-4.35 199.28-4.35Q205.03-4.35 208.03-7.95 211.03-11.55 211.03-17.2L211.03-17.2Q211.03-22.4 207.78-25.85 204.53-29.3 199.13-29.3ZM247.48-33.7L247.48-12.9Q247.48-6.35 244.08-2.95 240.68 0.45 234.68 0.45L234.68 0.45Q228.78 0.45 225.38-2.88 221.98-6.2 221.98-12.5L221.98-12.5 221.98-33.7 227.13-33.7 227.13-12.55Q227.13-8.25 229.21-6.28 231.28-4.3 234.68-4.3L234.68-4.3Q242.33-4.3 242.33-12.8L242.33-12.8 242.33-33.7 247.48-33.7ZM273.63-4.55L273.63 0 254.68 0 254.68-33.7 259.83-33.7 259.83-4.55 273.63-4.55ZM284.18-33.7L284.18 0 279.08 0 279.08-33.7 284.18-33.7ZM297.02-14.1L297.02 0 291.87 0 291.87-33.7 297.97-33.7 306.27-19.6Q308.57-15.65 310.45-12.3 312.32-8.95 313.02-7.6L313.02-7.6 313.72-6.2Q313.42-10.75 313.42-19.55L313.42-19.55 313.42-33.7 318.57-33.7 318.57 0 312.47 0 304.12-14.05Q301.87-17.85 300-21.23 298.12-24.6 297.37-26.1L297.37-26.1 296.62-27.55Q297.02-22.55 297.02-14.1L297.02-14.1ZM352.92-3.1L352.97-2.75Q348.62 0.4 342.07 0.4L342.07 0.4Q334.17 0.4 329.35-4.25 324.52-8.9 324.52-16.9L324.52-16.9Q324.52-24.65 329.4-29.48 334.27-34.3 341.77-34.3L341.77-34.3Q347.62-34.3 351.57-32.05L351.57-32.05 351.57-26.75Q347.27-29.45 341.97-29.45L341.97-29.45Q336.57-29.45 333.25-26 329.92-22.55 329.92-16.9L329.92-16.9Q329.92-11.1 333.2-7.75 336.47-4.4 342.22-4.4L342.22-4.4Q345.22-4.4 347.92-5.5L347.92-5.5 347.92-14.8 341.07-14.8 341.07-19.25 352.97-19.25 352.97-3.1 352.92-3.1ZM380.22-14.25L380.22-14.25 379.67-12.55 390.47-12.55 389.92-14.25Q388.02-20.15 386.82-24.03 385.62-27.9 385.37-28.85L385.37-28.85 385.12-29.8Q384.57-27.45 380.22-14.25ZM378.27-8.25L375.57 0 370.12 0 381.77-33.7 388.52-33.7 400.02 0 394.52 0 391.87-8.25 378.27-8.25ZM415.16-11.95L415.16-11.95 410.36-11.95 410.36 0 405.21 0 405.21-33.7 414.86-33.7Q420.66-33.7 424.06-30.63 427.46-27.55 427.46-22.75 427.46-17.95 424.04-14.95 420.61-11.95 415.16-11.95ZM414.66-29.45L414.66-29.45 410.36-29.45 410.36-16.2 414.76-16.2Q418.41-16.2 420.34-18 422.26-19.8 422.26-22.75L422.26-22.75Q422.26-25.85 420.31-27.65 418.36-29.45 414.66-29.45ZM442.66-11.95L442.66-11.95 437.86-11.95 437.86 0 432.71 0 432.71-33.7 442.36-33.7Q448.16-33.7 451.56-30.63 454.96-27.55 454.96-22.75 454.96-17.95 451.54-14.95 448.11-11.95 442.66-11.95ZM442.16-29.45L442.16-29.45 437.86-29.45 437.86-16.2 442.26-16.2Q445.91-16.2 447.84-18 449.76-19.8 449.76-22.75L449.76-22.75Q449.76-25.85 447.81-27.65 445.86-29.45 442.16-29.45Z" opacity="1" transform="matrix(1,0,0,1,0,0)" fill="#ffffff" class="undefined-text-0" data-fill-palette-color="primary" id="text-0"></path></svg></g></svg></g><g transform="matrix(1,0,0,1,0,37.42900217739591)"><svg viewBox="0 0 395.52 18.71335042961005" height="18.71335042961005" width="395.52"><g transform="matrix(1,0,0,1,0,0)"><svg width="395.52" viewBox="-0.05 -34.9 750.3199999999999 35.5" height="18.71335042961005" data-palette-color="#1e90ff"><path d="M-0.05 0L10.9-34.3 17.15-34.3 28.1 0 22.75 0 20.5-7.35 7.2-7.35 4.95 0-0.05 0ZM8.55-11.9L19.1-11.9 14.8-25.95Q14.4-27.25 13.95-30L13.95-30 13.75-30Q13.3-27.15 12.9-25.95L12.9-25.95 8.55-11.9ZM57.77 0.6Q51.12 0.6 47.67-3.83 44.22-8.25 44.22-17.15L44.22-17.15Q44.22-26.05 47.67-30.48 51.12-34.9 57.77-34.9L57.77-34.9Q63.27-34.9 66.62-31.58 69.97-28.25 69.97-21.8L69.97-21.8 64.82-21.8Q64.82-26 62.92-28.2 61.02-30.4 57.77-30.4L57.77-30.4Q49.47-30.4 49.47-18.4L49.47-18.4 49.47-15.9Q49.47-3.9 57.87-3.9L57.87-3.9Q61.17-3.9 63.09-6.08 65.02-8.25 65.02-12.45L65.02-12.45 69.97-12.45Q69.97-6 66.64-2.7 63.32 0.6 57.77 0.6L57.77 0.6ZM101.58 0.6Q94.93 0.6 91.48-3.83 88.03-8.25 88.03-17.15L88.03-17.15Q88.03-26.05 91.48-30.48 94.93-34.9 101.58-34.9L101.58-34.9Q107.08-34.9 110.43-31.58 113.78-28.25 113.78-21.8L113.78-21.8 108.63-21.8Q108.63-26 106.73-28.2 104.83-30.4 101.58-30.4L101.58-30.4Q93.28-30.4 93.28-18.4L93.28-18.4 93.28-15.9Q93.28-3.9 101.68-3.9L101.68-3.9Q104.98-3.9 106.91-6.08 108.83-8.25 108.83-12.45L108.83-12.45 113.78-12.45Q113.78-6 110.46-2.7 107.13 0.6 101.58 0.6L101.58 0.6ZM145.85 0.6Q139.3 0.6 135.7-3.88 132.1-8.35 132.1-17.15L132.1-17.15Q132.1-25.95 135.7-30.43 139.3-34.9 145.85-34.9L145.85-34.9Q152.4-34.9 156-30.43 159.6-25.95 159.6-17.15L159.6-17.15Q159.6-8.35 156-3.88 152.4 0.6 145.85 0.6L145.85 0.6ZM145.85-3.9Q149.9-3.9 152.12-6.98 154.35-10.05 154.35-15.9L154.35-15.9 154.35-18.4Q154.35-24.25 152.12-27.33 149.9-30.4 145.85-30.4L145.85-30.4Q141.8-30.4 139.57-27.33 137.35-24.25 137.35-18.4L137.35-18.4 137.35-15.9Q137.35-10.05 139.57-6.98 141.8-3.9 145.85-3.9L145.85-3.9ZM190.81 0.6Q185.36 0.6 182.36-2.38 179.36-5.35 179.36-11L179.36-11 179.36-34.3 184.41-34.3 184.41-10.9Q184.41-7.5 186.09-5.7 187.76-3.9 190.81-3.9L190.81-3.9Q193.86-3.9 195.56-5.73 197.26-7.55 197.26-10.9L197.26-10.9 197.26-34.3 202.26-34.3 202.26-11Q202.26-5.35 199.26-2.38 196.26 0.6 190.81 0.6L190.81 0.6ZM223.18 0L223.18-34.3 227.58-34.3 239.63-13.6Q240.28-12.5 241.53-9.45L241.53-9.45 241.68-9.5 241.58-13.5 241.58-34.3 246.08-34.3 246.08 0 241.78 0 229.63-20.9Q228.98-22.1 227.68-25.1L227.68-25.1 227.48-25Q227.68-22.15 227.68-21L227.68-21 227.68 0 223.18 0ZM273.64 0L273.64-29.75 264.54-29.75 264.54-34.3 287.74-34.3 287.74-29.75 278.69-29.75 278.69 0 273.64 0ZM330.98 0L330.98-34.3 338.43-34.3 343.88-12.95Q344.43-10.6 345.13-5.2L345.13-5.2 345.33-5.2Q345.88-10.75 346.43-12.95L346.43-12.95 351.93-34.3 359.23-34.3 359.23 0 354.33 0 354.33-23.95Q354.33-25.2 354.68-29.3L354.68-29.3 354.48-29.3 354.13-27.8Q353.58-25 353.28-23.95L353.28-23.95 347.08 0 342.63 0 336.43-24Q335.93-26 335.33-29.3L335.33-29.3 335.13-29.3Q335.43-25 335.43-23.95L335.43-23.95 335.43 0 330.98 0ZM376.34 0L387.29-34.3 393.54-34.3 404.49 0 399.14 0 396.89-7.35 383.59-7.35 381.34 0 376.34 0ZM384.94-11.9L395.49-11.9 391.19-25.95Q390.79-27.25 390.34-30L390.34-30 390.14-30Q389.69-27.15 389.29-25.95L389.29-25.95 384.94-11.9ZM422.01 0L422.01-34.3 426.41-34.3 438.46-13.6Q439.11-12.5 440.36-9.45L440.36-9.45 440.51-9.5 440.41-13.5 440.41-34.3 444.91-34.3 444.91 0 440.61 0 428.46-20.9Q427.81-22.1 426.51-25.1L426.51-25.1 426.31-25Q426.51-22.15 426.51-21L426.51-21 426.51 0 422.01 0ZM462.42 0L473.37-34.3 479.62-34.3 490.57 0 485.22 0 482.97-7.35 469.67-7.35 467.42 0 462.42 0ZM471.02-11.9L481.57-11.9 477.27-25.95Q476.87-27.25 476.42-30L476.42-30 476.22-30Q475.77-27.15 475.37-25.95L475.37-25.95 471.02-11.9ZM519.94-13.75L519.94-18.1 533.59-18.1 533.59 0 530.34 0 529.34-3.8Q526.24 0.6 520.39 0.6L520.39 0.6Q513.84 0.6 510.39-3.83 506.94-8.25 506.94-17.15L506.94-17.15Q506.94-25.95 510.59-30.43 514.24-34.9 520.94-34.9L520.94-34.9Q524.54-34.9 527.41-33.5 530.29-32.1 531.94-29.3 533.59-26.5 533.59-22.5L533.59-22.5 528.44-22.5Q528.44-26.4 526.39-28.4 524.34-30.4 520.89-30.4L520.89-30.4Q516.69-30.4 514.44-27.35 512.19-24.3 512.19-18.4L512.19-18.4 512.19-15.9Q512.19-9.95 514.34-6.93 516.49-3.9 520.74-3.9L520.74-3.9Q524.59-3.9 526.51-6.25 528.44-8.6 528.44-13.2L528.44-13.2 528.44-13.75 519.94-13.75ZM554.2 0L554.2-34.3 575.55-34.3 575.55-29.75 559.2-29.75 559.2-19.8 573.35-19.8 573.35-15.3 559.2-15.3 559.2-4.55 575.85-4.55 575.85 0 554.2 0ZM595.37 0L595.37-34.3 602.82-34.3 608.27-12.95Q608.82-10.6 609.52-5.2L609.52-5.2 609.72-5.2Q610.27-10.75 610.82-12.95L610.82-12.95 616.32-34.3 623.62-34.3 623.62 0 618.72 0 618.72-23.95Q618.72-25.2 619.07-29.3L619.07-29.3 618.87-29.3 618.52-27.8Q617.97-25 617.67-23.95L617.67-23.95 611.47 0 607.02 0 600.82-24Q600.32-26 599.72-29.3L599.72-29.3 599.52-29.3Q599.82-25 599.82-23.95L599.82-23.95 599.82 0 595.37 0ZM644.14 0L644.14-34.3 665.49-34.3 665.49-29.75 649.14-29.75 649.14-19.8 663.29-19.8 663.29-15.3 649.14-15.3 649.14-4.55 665.79-4.55 665.79 0 644.14 0ZM685.7 0L685.7-34.3 690.1-34.3 702.15-13.6Q702.8-12.5 704.05-9.45L704.05-9.45 704.2-9.5 704.1-13.5 704.1-34.3 708.6-34.3 708.6 0 704.3 0 692.15-20.9Q691.5-22.1 690.2-25.1L690.2-25.1 690-25Q690.2-22.15 690.2-21L690.2-21 690.2 0 685.7 0ZM736.17 0L736.17-29.75 727.07-29.75 727.07-34.3 750.27-34.3 750.27-29.75 741.22-29.75 741.22 0 736.17 0Z" opacity="1" transform="matrix(1,0,0,1,0,0)" fill="#ffffff" class="undefined-text-1" data-fill-palette-color="secondary" id="text-1"></path></svg></g></svg></g></svg></g></svg></g><g transform="matrix(1,0,0,1,159.06339548601332,0)"><svg viewBox="0 0 79.37080902797327 77.58873130288224" height="77.58873130288224" width="79.37080902797327"><g><svg xmlns="http://www.w3.org/2000/svg" xmlns:xlink="http://www.w3.org/1999/xlink" version="1.1" baseProfile="basic" x="0" y="0" viewBox="18.818 18.966 63.86800000000001 62.434000000000005" xml:space="preserve" height="77.58873130288224" width="79.37080902797327" class="icon-icon-0" data-fill-palette-color="accent" id="icon-0"><g fill="#1e90ff" data-fill-palette-color="accent"><circle cx="38.373" cy="59.574" r="5.4" fill="#ffffff" data-fill-palette-color="accent"></circle><path d="M41.459 65.939l-0.032-0.065H41.23h-1.312-3.082-1.311-0.23l-1.377 0.163h-0.197c-0.068 0.008-0.129 0.024-0.196 0.032l-0.294 0.034h-0.033c-5.898 0.832-6.427 3.638-6.427 3.638l-0.065 0.524V81.4h23.345V70.266l-0.066-0.524C49.985 69.741 49.363 66.332 41.459 65.939z" fill="#ffffff" data-fill-palette-color="accent"></path><path d="M69.92 65.939l-0.033-0.065h-0.197-1.311-3.083-1.31-0.23l-1.377 0.163h-0.197c-0.068 0.008-0.129 0.024-0.197 0.032l-0.295 0.034h-0.031c-5.898 0.832-6.428 3.638-6.428 3.638l-0.064 0.524V81.4h23.343V70.266l-0.065-0.524C78.443 69.741 77.822 66.332 69.92 65.939z" fill="#ffffff" data-fill-palette-color="accent"></path><circle cx="66.835" cy="59.574" r="5.4" fill="#ffffff" data-fill-palette-color="accent"></circle><circle cx="28.756" cy="35.065" r="4.1" fill="#ffffff" data-fill-palette-color="accent"></circle><path d="M47.165 38.494l11.05-11.907-9.118 12.896c0.18 0.189 0.342 0.398 0.478 0.633 0.648 1.123 0.648 2.573 0.001 3.695-0.61 1.057-1.689 1.663-2.959 1.663 0 0 0 0-0.001 0H39.47v7.827c2.917 0.494 5.16 2.975 5.29 5.998h15.75c0.145-3.385 2.936-6.095 6.355-6.095 0.32 0 0.631 0.031 0.938 0.077V23.218c0-2.338-1.914-4.252-4.252-4.252H43.722c-2.339 0-4.252 1.914-4.252 4.252v15.233l7.139-0.002C46.799 38.45 46.984 38.468 47.165 38.494z" fill="#ffffff" data-fill-palette-color="accent"></path><path d="M28.276 66.65V60.4h1.082L29.356 66.1c0.963-0.414 2.18-0.768 3.733-0.986l0.353-0.037c0.081-0.016 0.137-0.025 0.197-0.033l0.566-0.05v-0.65c-1.325-1.167-2.171-2.867-2.171-4.769 0-1.905 0.845-3.613 2.174-4.781l0.003-8.792v-1.944h12.396c2.602 0.008 2.602-4.024 0.002-4.024H33.676v0.004H33.61h-0.209l-9.49-0.004c-3.062 0-4.982 2.499-4.982 5.615v13.288c0 2.582 3.412 2.582 3.412 0V46.001h1.086L23.42 78.975c0 1.301 1.03 2.356 2.317 2.415l0.007-11.245 0.064-0.525C25.86 69.342 26.225 67.881 28.276 66.65z" fill="#ffffff" data-fill-palette-color="accent"></path><rect x="51.068" y="73.895" width="3.028" height="1.502" fill="#ffffff" data-fill-palette-color="accent"></rect><rect x="79.658" y="73.895" width="3.028" height="1.502" fill="#ffffff" data-fill-palette-color="accent"></rect><rect x="18.818" y="73.895" width="3.522" height="1.502" fill="#ffffff" data-fill-palette-color="accent"></rect></g></svg></g></svg></g><g></g></svg></g></svg></g></svg></g></svg><rect width="395.52" height="247.2" fill="none" stroke="none" visibility="hidden"></rect></g></svg></g></svg>