<svg xmlns="http://www.w3.org/2000/svg" version="1.1" xmlns:xlink="http://www.w3.org/1999/xlink" xmlns:svgjs="http://svgjs.dev/svgjs" width="2000" height="1247" viewBox="0 0 2000 1247"><g transform="matrix(1,0,0,1,-1.2121212121212466,0.504858299595071)"><svg viewBox="0 0 396 247" data-background-color="#ffffff" preserveAspectRatio="xMidYMid meet" height="1247" width="2000" xmlns="http://www.w3.org/2000/svg" xmlns:xlink="http://www.w3.org/1999/xlink"><defs></defs><g id="tight-bounds" transform="matrix(1,0,0,1,0.2400000000000091,-0.09999999999999432)"><svg viewBox="0 0 395.52 247.2" height="247.2" width="395.52"><g><svg></svg></g><g><svg viewBox="0 0 395.52 247.2" height="247.2" width="395.52"><g><path d="M55.039 247.2l26.403-45.732 232.636 0 26.403 45.732zM197.76 0l26.403 45.732-52.806 0z" fill="#ffffff" fill-rule="nonzero" stroke="none" stroke-width="1" stroke-linecap="butt" stroke-linejoin="miter" stroke-miterlimit="10" stroke-dasharray="" stroke-dashoffset="0" font-family="none" font-weight="none" font-size="none" text-anchor="none" style="mix-blend-mode: normal" data-fill-palette-color="tertiary"></path></g><g transform="matrix(1,0,0,1,56.99670332515598,67.97999999999999)"><svg viewBox="0 0 281.526593349688 111.24" height="111.24" width="281.526593349688"><g><svg viewBox="0 0 397.4975999999999 157.0637874663466" height="111.24" width="281.526593349688"><g><rect width="397.4975999999999" height="2.730726948090417" x="0" y="84.73723116699328" fill="#ffffff" opacity="1" stroke-width="0" stroke="transparent" fill-opacity="1" class="rect-ab-0" data-fill-palette-color="primary" rx="1%" id="ab-0" data-palette-color="#1e90ff"></rect></g><g><rect width="397.4975999999999" height="2.730726948090417" x="0" y="91.04220804713923" fill="#ffffff" opacity="1" stroke-width="0" stroke="transparent" fill-opacity="1" class="rect-ab-1" data-fill-palette-color="primary" rx="1%" id="ab-1" data-palette-color="#1e90ff"></rect></g><g transform="matrix(1,0,0,1,0.9887999999999693,100.92143485934069)"><svg viewBox="0 0 395.52 56.142352607005954" height="56.142352607005954" width="395.52"><g><svg viewBox="0 0 395.52 56.142352607005954" height="56.142352607005954" width="395.52"><g><svg viewBox="0 0 395.52 30.280502313284867" height="30.280502313284867" width="395.52"><g transform="matrix(1,0,0,1,0,0)"><svg width="395.52" viewBox="1.1 -34.3 453.85999999999996 34.75" height="30.280502313284867" data-palette-color="#1e90ff"><path d="M23.9-33.7L23.9-29.4 15.05-29.4 15.05 0 9.9 0 9.9-29.4 1.1-29.4 1.1-33.7 23.9-33.7ZM36.65-14.25L36.65-14.25 36.1-12.55 46.9-12.55 46.35-14.25Q44.45-20.15 43.25-24.03 42.05-27.9 41.8-28.85L41.8-28.85 41.55-29.8Q41-27.45 36.65-14.25ZM34.7-8.25L32 0 26.55 0 38.2-33.7 44.95-33.7 56.45 0 50.95 0 48.3-8.25 34.7-8.25ZM93.89-9.2L93.89-9.2Q93.89-4.75 90.74-2.2 87.59 0.35 82.59 0.35L82.59 0.35Q77.04 0.35 73.39-1.8L73.39-1.8 73.39-7.15Q77.34-4.2 82.54-4.2L82.54-4.2Q85.29-4.2 86.89-5.48 88.49-6.75 88.49-9L88.49-9Q88.49-10.35 87.54-11.48 86.59-12.6 85.49-13.18 84.39-13.75 82.19-14.75L82.19-14.75Q80.89-15.35 80.37-15.6 79.84-15.85 78.64-16.5 77.44-17.15 76.87-17.6 76.29-18.05 75.44-18.85 74.59-19.65 74.22-20.45 73.84-21.25 73.52-22.33 73.19-23.4 73.19-24.65L73.19-24.65Q73.19-28.95 76.32-31.45 79.44-33.95 84.39-33.95L84.39-33.95Q88.94-33.95 92.14-32.35L92.14-32.35 92.14-27.25Q88.79-29.35 84.54-29.35L84.54-29.35Q81.79-29.35 80.22-28.13 78.64-26.9 78.64-24.9 78.64-22.9 80.19-21.7 81.74-20.5 84.94-19.1L84.94-19.1Q87.04-18.2 88.22-17.55 89.39-16.9 90.92-15.73 92.44-14.55 93.17-12.93 93.89-11.3 93.89-9.2ZM124.39-6.85L124.39-1.65Q121.29 0.4 115.79 0.4L115.79 0.4Q108.24 0.4 103.44-4.3 98.64-9 98.64-16.9L98.64-16.9Q98.64-24.55 103.47-29.35 108.29-34.15 115.69-34.15L115.69-34.15Q121.09-34.15 124.34-32.3L124.34-32.3 124.34-27.25Q122.14-28.45 120.37-28.93 118.59-29.4 115.84-29.4L115.84-29.4Q110.79-29.4 107.42-25.98 104.04-22.55 104.04-16.9L104.04-16.9Q104.04-11.15 107.39-7.75 110.74-4.35 116.24-4.35L116.24-4.35Q121.09-4.35 124.39-6.85L124.39-6.85ZM155.69-33.7L155.69 0 150.54 0 150.54-14.75 135.39-14.75 135.39 0 130.24 0 130.24-33.7 135.39-33.7 135.39-19.2 150.54-19.2 150.54-33.7 155.69-33.7ZM182.49-4.3L182.49 0 163.04 0 163.04-33.7 182.24-33.7 182.24-29.4 168.19-29.4 168.19-19 180.64-19 180.64-14.7 168.19-14.7 168.19-4.3 182.49-4.3ZM199.33 0L199.33 0 188.73 0 188.73-33.7 199.23-33.7Q206.73-33.7 211.53-29.05 216.33-24.4 216.33-17.2L216.33-17.2Q216.33-9.7 211.81-4.85 207.28 0 199.33 0ZM199.13-29.3L199.13-29.3 193.98-29.3 193.98-4.35 199.28-4.35Q205.03-4.35 208.03-7.95 211.03-11.55 211.03-17.2L211.03-17.2Q211.03-22.4 207.78-25.85 204.53-29.3 199.13-29.3ZM247.48-33.7L247.48-12.9Q247.48-6.35 244.08-2.95 240.68 0.45 234.68 0.45L234.68 0.45Q228.78 0.45 225.38-2.88 221.98-6.2 221.98-12.5L221.98-12.5 221.98-33.7 227.13-33.7 227.13-12.55Q227.13-8.25 229.21-6.28 231.28-4.3 234.68-4.3L234.68-4.3Q242.33-4.3 242.33-12.8L242.33-12.8 242.33-33.7 247.48-33.7ZM273.63-4.55L273.63 0 254.68 0 254.68-33.7 259.83-33.7 259.83-4.55 273.63-4.55ZM284.18-33.7L284.18 0 279.08 0 279.08-33.7 284.18-33.7ZM297.02-14.1L297.02 0 291.87 0 291.87-33.7 297.97-33.7 306.27-19.6Q308.57-15.65 310.45-12.3 312.32-8.95 313.02-7.6L313.02-7.6 313.72-6.2Q313.42-10.75 313.42-19.55L313.42-19.55 313.42-33.7 318.57-33.7 318.57 0 312.47 0 304.12-14.05Q301.87-17.85 300-21.23 298.12-24.6 297.37-26.1L297.37-26.1 296.62-27.55Q297.02-22.55 297.02-14.1L297.02-14.1ZM352.92-3.1L352.97-2.75Q348.62 0.4 342.07 0.4L342.07 0.4Q334.17 0.4 329.35-4.25 324.52-8.9 324.52-16.9L324.52-16.9Q324.52-24.65 329.4-29.48 334.27-34.3 341.77-34.3L341.77-34.3Q347.62-34.3 351.57-32.05L351.57-32.05 351.57-26.75Q347.27-29.45 341.97-29.45L341.97-29.45Q336.57-29.45 333.25-26 329.92-22.55 329.92-16.9L329.92-16.9Q329.92-11.1 333.2-7.75 336.47-4.4 342.22-4.4L342.22-4.4Q345.22-4.4 347.92-5.5L347.92-5.5 347.92-14.8 341.07-14.8 341.07-19.25 352.97-19.25 352.97-3.1 352.92-3.1ZM380.22-14.25L380.22-14.25 379.67-12.55 390.47-12.55 389.92-14.25Q388.02-20.15 386.82-24.03 385.62-27.9 385.37-28.85L385.37-28.85 385.12-29.8Q384.57-27.45 380.22-14.25ZM378.27-8.25L375.57 0 370.12 0 381.77-33.7 388.52-33.7 400.02 0 394.52 0 391.87-8.25 378.27-8.25ZM415.16-11.95L415.16-11.95 410.36-11.95 410.36 0 405.21 0 405.21-33.7 414.86-33.7Q420.66-33.7 424.06-30.63 427.46-27.55 427.46-22.75 427.46-17.95 424.04-14.95 420.61-11.95 415.16-11.95ZM414.66-29.45L414.66-29.45 410.36-29.45 410.36-16.2 414.76-16.2Q418.41-16.2 420.34-18 422.26-19.8 422.26-22.75L422.26-22.75Q422.26-25.85 420.31-27.65 418.36-29.45 414.66-29.45ZM442.66-11.95L442.66-11.95 437.86-11.95 437.86 0 432.71 0 432.71-33.7 442.36-33.7Q448.16-33.7 451.56-30.63 454.96-27.55 454.96-22.75 454.96-17.95 451.54-14.95 448.11-11.95 442.66-11.95ZM442.16-29.45L442.16-29.45 437.86-29.45 437.86-16.2 442.26-16.2Q445.91-16.2 447.84-18 449.76-19.8 449.76-22.75L449.76-22.75Q449.76-25.85 447.81-27.65 445.86-29.45 442.16-29.45Z" opacity="1" transform="matrix(1,0,0,1,0,0)" fill="#ffffff" class="undefined-text-0" data-fill-palette-color="primary" id="text-0"></path></svg></g></svg></g><g transform="matrix(1,0,0,1,0,37.42900217739591)"><svg viewBox="0 0 395.52 18.71335042961005" height="18.71335042961005" width="395.52"><g transform="matrix(1,0,0,1,0,0)"><svg width="395.52" viewBox="1.95 -34.9 750.3199999999999 35.5" height="18.71335042961005" data-palette-color="#1e90ff"><path d="M15.5 0.6Q8.85 0.6 5.4-3.83 1.95-8.25 1.95-17.15L1.95-17.15Q1.95-26.05 5.4-30.48 8.85-34.9 15.5-34.9L15.5-34.9Q21-34.9 24.35-31.58 27.7-28.25 27.7-21.8L27.7-21.8 22.55-21.8Q22.55-26 20.65-28.2 18.75-30.4 15.5-30.4L15.5-30.4Q7.2-30.4 7.2-18.4L7.2-18.4 7.2-15.9Q7.2-3.9 15.6-3.9L15.6-3.9Q18.9-3.9 20.83-6.08 22.75-8.25 22.75-12.45L22.75-12.45 27.7-12.45Q27.7-6 24.38-2.7 21.05 0.6 15.5 0.6L15.5 0.6ZM62.5 0.6Q55.95 0.6 52.35-3.88 48.75-8.35 48.75-17.15L48.75-17.15Q48.75-25.95 52.35-30.43 55.95-34.9 62.5-34.9L62.5-34.9Q69.05-34.9 72.65-30.43 76.25-25.95 76.25-17.15L76.25-17.15Q76.25-8.35 72.65-3.88 69.05 0.6 62.5 0.6L62.5 0.6ZM62.5-3.9Q66.55-3.9 68.77-6.98 71-10.05 71-15.9L71-15.9 71-18.4Q71-24.25 68.77-27.33 66.55-30.4 62.5-30.4L62.5-30.4Q58.45-30.4 56.22-27.33 54-24.25 54-18.4L54-18.4 54-15.9Q54-10.05 56.22-6.98 58.45-3.9 62.5-3.9L62.5-3.9ZM110.2 0.6Q104.75 0.6 101.75-2.38 98.75-5.35 98.75-11L98.75-11 98.75-34.3 103.8-34.3 103.8-10.9Q103.8-7.5 105.47-5.7 107.15-3.9 110.2-3.9L110.2-3.9Q113.25-3.9 114.95-5.73 116.65-7.55 116.65-10.9L116.65-10.9 116.65-34.3 121.65-34.3 121.65-11Q121.65-5.35 118.65-2.38 115.65 0.6 110.2 0.6L110.2 0.6ZM145.29 0L145.29-34.3 159.24-34.3Q164.24-34.3 166.92-31.68 169.59-29.05 169.59-24.7L169.59-24.7Q169.59-21.55 167.99-19.2 166.39-16.85 163.59-15.85L163.59-15.85 170.39 0 164.84 0 158.69-14.9 150.29-14.9 150.29 0 145.29 0ZM150.29-19.4L158.89-19.4Q161.39-19.4 162.82-20.85 164.24-22.3 164.24-24.7L164.24-24.7Q164.24-27.05 162.89-28.4 161.54-29.75 158.94-29.75L158.94-29.75 150.29-29.75 150.29-19.4ZM201.99 0.6Q196.89 0.6 193.64-1.98 190.39-4.55 190.39-9.8L190.39-9.8 190.44-10.85 195.64-10.85 195.59-9.85Q195.59-7 197.34-5.45 199.09-3.9 201.99-3.9L201.99-3.9Q205.19-3.9 206.87-5.28 208.54-6.65 208.54-9.1L208.54-9.1Q208.54-10.9 207.57-12.05 206.59-13.2 205.12-13.88 203.64-14.55 201.09-15.35L201.09-15.35Q197.89-16.4 195.89-17.4 193.89-18.4 192.49-20.38 191.09-22.35 191.09-25.55L191.09-25.55Q191.09-30.1 194.22-32.5 197.34-34.9 202.14-34.9L202.14-34.9Q206.94-34.9 209.99-32.45 213.04-30 213.04-25.1L213.04-25.1 213.04-24.5 207.84-24.5 207.84-25.15Q207.84-27.6 206.27-29 204.69-30.4 202.19-30.4L202.19-30.4Q199.54-30.4 197.94-29.25 196.34-28.1 196.34-25.95L196.34-25.95Q196.34-24.35 197.29-23.28 198.24-22.2 199.69-21.55 201.14-20.9 203.59-20.15L203.59-20.15Q206.84-19.1 208.87-18.1 210.89-17.1 212.34-15.15 213.79-13.2 213.79-10.05L213.79-10.05Q213.79-4.5 210.62-1.95 207.44 0.6 201.99 0.6L201.99 0.6ZM236.14 0L236.14-34.3 257.49-34.3 257.49-29.75 241.14-29.75 241.14-19.8 255.29-19.8 255.29-15.3 241.14-15.3 241.14-4.55 257.79-4.55 257.79 0 236.14 0ZM308.39 0L308.39-34.3 315.84-34.3 321.29-12.95Q321.84-10.6 322.54-5.2L322.54-5.2 322.74-5.2Q323.29-10.75 323.84-12.95L323.84-12.95 329.34-34.3 336.64-34.3 336.64 0 331.74 0 331.74-23.95Q331.74-25.2 332.09-29.3L332.09-29.3 331.89-29.3 331.54-27.8Q330.99-25 330.69-23.95L330.69-23.95 324.49 0 320.04 0 313.84-24Q313.34-26 312.74-29.3L312.74-29.3 312.54-29.3Q312.84-25 312.84-23.95L312.84-23.95 312.84 0 308.39 0ZM356.48 0L367.43-34.3 373.68-34.3 384.63 0 379.28 0 377.03-7.35 363.73-7.35 361.48 0 356.48 0ZM365.08-11.9L375.63-11.9 371.33-25.95Q370.93-27.25 370.48-30L370.48-30 370.28-30Q369.83-27.15 369.43-25.95L369.43-25.95 365.08-11.9ZM404.88 0L404.88-34.3 409.28-34.3 421.33-13.6Q421.98-12.5 423.23-9.45L423.23-9.45 423.38-9.5 423.28-13.5 423.28-34.3 427.78-34.3 427.78 0 423.48 0 411.33-20.9Q410.68-22.1 409.38-25.1L409.38-25.1 409.18-25Q409.38-22.15 409.38-21L409.38-21 409.38 0 404.88 0ZM448.03 0L458.98-34.3 465.23-34.3 476.18 0 470.83 0 468.58-7.35 455.28-7.35 453.03 0 448.03 0ZM456.63-11.9L467.18-11.9 462.88-25.95Q462.48-27.25 462.03-30L462.03-30 461.83-30Q461.38-27.15 460.98-25.95L460.98-25.95 456.63-11.9ZM508.28-13.75L508.28-18.1 521.93-18.1 521.93 0 518.68 0 517.68-3.8Q514.58 0.6 508.73 0.6L508.73 0.6Q502.18 0.6 498.73-3.83 495.28-8.25 495.28-17.15L495.28-17.15Q495.28-25.95 498.93-30.43 502.58-34.9 509.28-34.9L509.28-34.9Q512.88-34.9 515.75-33.5 518.63-32.1 520.28-29.3 521.93-26.5 521.93-22.5L521.93-22.5 516.78-22.5Q516.78-26.4 514.73-28.4 512.68-30.4 509.23-30.4L509.23-30.4Q505.03-30.4 502.78-27.35 500.53-24.3 500.53-18.4L500.53-18.4 500.53-15.9Q500.53-9.95 502.68-6.93 504.83-3.9 509.08-3.9L509.08-3.9Q512.93-3.9 514.85-6.25 516.78-8.6 516.78-13.2L516.78-13.2 516.78-13.75 508.28-13.75ZM545.28 0L545.28-34.3 566.63-34.3 566.63-29.75 550.28-29.75 550.28-19.8 564.43-19.8 564.43-15.3 550.28-15.3 550.28-4.55 566.93-4.55 566.93 0 545.28 0ZM589.17 0L589.17-34.3 596.62-34.3 602.07-12.95Q602.62-10.6 603.32-5.2L603.32-5.2 603.52-5.2Q604.07-10.75 604.62-12.95L604.62-12.95 610.12-34.3 617.42-34.3 617.42 0 612.52 0 612.52-23.95Q612.52-25.2 612.87-29.3L612.87-29.3 612.67-29.3 612.32-27.8Q611.77-25 611.47-23.95L611.47-23.95 605.27 0 600.82 0 594.62-24Q594.12-26 593.52-29.3L593.52-29.3 593.32-29.3Q593.62-25 593.62-23.95L593.62-23.95 593.62 0 589.17 0ZM640.67 0L640.67-34.3 662.02-34.3 662.02-29.75 645.67-29.75 645.67-19.8 659.82-19.8 659.82-15.3 645.67-15.3 645.67-4.55 662.32-4.55 662.32 0 640.67 0ZM684.97 0L684.97-34.3 689.37-34.3 701.42-13.6Q702.07-12.5 703.32-9.45L703.32-9.45 703.47-9.5 703.37-13.5 703.37-34.3 707.87-34.3 707.87 0 703.57 0 691.42-20.9Q690.77-22.1 689.47-25.1L689.47-25.1 689.27-25Q689.47-22.15 689.47-21L689.47-21 689.47 0 684.97 0ZM738.17 0L738.17-29.75 729.07-29.75 729.07-34.3 752.27-34.3 752.27-29.75 743.22-29.75 743.22 0 738.17 0Z" opacity="1" transform="matrix(1,0,0,1,0,0)" fill="#ffffff" class="undefined-text-1" data-fill-palette-color="secondary" id="text-1"></path></svg></g></svg></g></svg></g></svg></g><g transform="matrix(1,0,0,1,159.06339548601332,0)"><svg viewBox="0 0 79.37080902797327 77.58873130288224" height="77.58873130288224" width="79.37080902797327"><g><svg xmlns="http://www.w3.org/2000/svg" xmlns:xlink="http://www.w3.org/1999/xlink" version="1.1" baseProfile="basic" x="0" y="0" viewBox="18.818 18.966 63.86800000000001 62.434000000000005" xml:space="preserve" height="77.58873130288224" width="79.37080902797327" class="icon-icon-0" data-fill-palette-color="accent" id="icon-0"><g fill="#1e90ff" data-fill-palette-color="accent"><circle cx="38.373" cy="59.574" r="5.4" fill="#ffffff" data-fill-palette-color="accent"></circle><path d="M41.459 65.939l-0.032-0.065H41.23h-1.312-3.082-1.311-0.23l-1.377 0.163h-0.197c-0.068 0.008-0.129 0.024-0.196 0.032l-0.294 0.034h-0.033c-5.898 0.832-6.427 3.638-6.427 3.638l-0.065 0.524V81.4h23.345V70.266l-0.066-0.524C49.985 69.741 49.363 66.332 41.459 65.939z" fill="#ffffff" data-fill-palette-color="accent"></path><path d="M69.92 65.939l-0.033-0.065h-0.197-1.311-3.083-1.31-0.23l-1.377 0.163h-0.197c-0.068 0.008-0.129 0.024-0.197 0.032l-0.295 0.034h-0.031c-5.898 0.832-6.428 3.638-6.428 3.638l-0.064 0.524V81.4h23.343V70.266l-0.065-0.524C78.443 69.741 77.822 66.332 69.92 65.939z" fill="#ffffff" data-fill-palette-color="accent"></path><circle cx="66.835" cy="59.574" r="5.4" fill="#ffffff" data-fill-palette-color="accent"></circle><circle cx="28.756" cy="35.065" r="4.1" fill="#ffffff" data-fill-palette-color="accent"></circle><path d="M47.165 38.494l11.05-11.907-9.118 12.896c0.18 0.189 0.342 0.398 0.478 0.633 0.648 1.123 0.648 2.573 0.001 3.695-0.61 1.057-1.689 1.663-2.959 1.663 0 0 0 0-0.001 0H39.47v7.827c2.917 0.494 5.16 2.975 5.29 5.998h15.75c0.145-3.385 2.936-6.095 6.355-6.095 0.32 0 0.631 0.031 0.938 0.077V23.218c0-2.338-1.914-4.252-4.252-4.252H43.722c-2.339 0-4.252 1.914-4.252 4.252v15.233l7.139-0.002C46.799 38.45 46.984 38.468 47.165 38.494z" fill="#ffffff" data-fill-palette-color="accent"></path><path d="M28.276 66.65V60.4h1.082L29.356 66.1c0.963-0.414 2.18-0.768 3.733-0.986l0.353-0.037c0.081-0.016 0.137-0.025 0.197-0.033l0.566-0.05v-0.65c-1.325-1.167-2.171-2.867-2.171-4.769 0-1.905 0.845-3.613 2.174-4.781l0.003-8.792v-1.944h12.396c2.602 0.008 2.602-4.024 0.002-4.024H33.676v0.004H33.61h-0.209l-9.49-0.004c-3.062 0-4.982 2.499-4.982 5.615v13.288c0 2.582 3.412 2.582 3.412 0V46.001h1.086L23.42 78.975c0 1.301 1.03 2.356 2.317 2.415l0.007-11.245 0.064-0.525C25.86 69.342 26.225 67.881 28.276 66.65z" fill="#ffffff" data-fill-palette-color="accent"></path><rect x="51.068" y="73.895" width="3.028" height="1.502" fill="#ffffff" data-fill-palette-color="accent"></rect><rect x="79.658" y="73.895" width="3.028" height="1.502" fill="#ffffff" data-fill-palette-color="accent"></rect><rect x="18.818" y="73.895" width="3.522" height="1.502" fill="#ffffff" data-fill-palette-color="accent"></rect></g></svg></g></svg></g><g></g></svg></g></svg></g></svg></g></svg><rect width="395.52" height="247.2" fill="none" stroke="none" visibility="hidden"></rect></g></svg></g></svg>