<svg xmlns="http://www.w3.org/2000/svg" version="1.1" xmlns:xlink="http://www.w3.org/1999/xlink" xmlns:svgjs="http://svgjs.dev/svgjs" width="1000" height="623" viewBox="0 0 1000 623"><g transform="matrix(1,0,0,1,-0.6060606060606233,0.2522267206477409)"><svg viewBox="0 0 396 247" data-background-color="#ffffff" preserveAspectRatio="xMidYMid meet" height="623" width="1000" xmlns="http://www.w3.org/2000/svg" xmlns:xlink="http://www.w3.org/1999/xlink"><defs></defs><g id="tight-bounds" transform="matrix(1,0,0,1,0.2400000000000091,-0.09999999999999432)"><svg viewBox="0 0 395.52 247.2" height="247.2" width="395.52"><g><svg></svg></g><g><svg viewBox="0 0 395.52 247.2" height="247.2" width="395.52"><g><path d="M55.039 247.2l26.403-45.732 232.636 0 26.403 45.732zM197.76 0l26.403 45.732-52.806 0z" fill="#1e90ff" data-fill-palette-color="tertiary"></path></g><g transform="matrix(1,0,0,1,56.99670332515598,67.97999999999999)"><svg viewBox="0 0 281.526593349688 111.24" height="111.24" width="281.526593349688"><g><svg viewBox="0 0 397.4975999999999 157.0637874663466" height="111.24" width="281.526593349688"><g><rect width="397.4975999999999" height="2.730726948090417" x="0" y="84.73723116699328" fill="#1e90ff" opacity="1" stroke-width="0" stroke="transparent" fill-opacity="1" class="rect-o-0" data-fill-palette-color="primary" rx="1%" id="o-0" data-palette-color="#1e90ff"></rect></g><g><rect width="397.4975999999999" height="2.730726948090417" x="0" y="91.04220804713923" fill="#1e90ff" opacity="1" stroke-width="0" stroke="transparent" fill-opacity="1" class="rect-o-1" data-fill-palette-color="primary" rx="1%" id="o-1" data-palette-color="#1e90ff"></rect></g><g transform="matrix(1,0,0,1,0.9887999999999693,100.92143485934069)"><svg viewBox="0 0 395.52 56.142352607005954" height="56.142352607005954" width="395.52"><g><svg viewBox="0 0 395.52 56.142352607005954" height="56.142352607005954" width="395.52"><g><svg viewBox="0 0 395.52 30.280502313284867" height="30.280502313284867" width="395.52"><g transform="matrix(1,0,0,1,0,0)"><svg width="395.52" viewBox="1.100000023841858 -34.29999923706055 453.8599853515625 34.75" height="30.280502313284867" data-palette-color="#1e90ff"><path d="M23.9-33.7L23.9-29.4 15.05-29.4 15.05 0 9.9 0 9.9-29.4 1.1-29.4 1.1-33.7 23.9-33.7ZM36.65-14.25L36.65-14.25 36.1-12.55 46.9-12.55 46.35-14.25Q44.45-20.15 43.25-24.03 42.05-27.9 41.8-28.85L41.8-28.85 41.55-29.8Q41-27.45 36.65-14.25ZM34.7-8.25L32 0 26.55 0 38.2-33.7 44.95-33.7 56.45 0 50.95 0 48.3-8.25 34.7-8.25ZM93.89-9.2L93.89-9.2Q93.89-4.75 90.74-2.2 87.59 0.35 82.59 0.35L82.59 0.35Q77.04 0.35 73.39-1.8L73.39-1.8 73.39-7.15Q77.34-4.2 82.54-4.2L82.54-4.2Q85.29-4.2 86.89-5.48 88.49-6.75 88.49-9L88.49-9Q88.49-10.35 87.54-11.48 86.59-12.6 85.49-13.18 84.39-13.75 82.19-14.75L82.19-14.75Q80.89-15.35 80.37-15.6 79.84-15.85 78.64-16.5 77.44-17.15 76.87-17.6 76.29-18.05 75.44-18.85 74.59-19.65 74.22-20.45 73.84-21.25 73.52-22.33 73.19-23.4 73.19-24.65L73.19-24.65Q73.19-28.95 76.32-31.45 79.44-33.95 84.39-33.95L84.39-33.95Q88.94-33.95 92.14-32.35L92.14-32.35 92.14-27.25Q88.79-29.35 84.54-29.35L84.54-29.35Q81.79-29.35 80.22-28.13 78.64-26.9 78.64-24.9 78.64-22.9 80.19-21.7 81.74-20.5 84.94-19.1L84.94-19.1Q87.04-18.2 88.22-17.55 89.39-16.9 90.92-15.73 92.44-14.55 93.17-12.93 93.89-11.3 93.89-9.2ZM124.39-6.85L124.39-1.65Q121.29 0.4 115.79 0.4L115.79 0.4Q108.24 0.4 103.44-4.3 98.64-9 98.64-16.9L98.64-16.9Q98.64-24.55 103.47-29.35 108.29-34.15 115.69-34.15L115.69-34.15Q121.09-34.15 124.34-32.3L124.34-32.3 124.34-27.25Q122.14-28.45 120.37-28.93 118.59-29.4 115.84-29.4L115.84-29.4Q110.79-29.4 107.42-25.98 104.04-22.55 104.04-16.9L104.04-16.9Q104.04-11.15 107.39-7.75 110.74-4.35 116.24-4.35L116.24-4.35Q121.09-4.35 124.39-6.85L124.39-6.85ZM155.69-33.7L155.69 0 150.54 0 150.54-14.75 135.39-14.75 135.39 0 130.24 0 130.24-33.7 135.39-33.7 135.39-19.2 150.54-19.2 150.54-33.7 155.69-33.7ZM182.49-4.3L182.49 0 163.04 0 163.04-33.7 182.24-33.7 182.24-29.4 168.19-29.4 168.19-19 180.64-19 180.64-14.7 168.19-14.7 168.19-4.3 182.49-4.3ZM199.33 0L199.33 0 188.73 0 188.73-33.7 199.23-33.7Q206.73-33.7 211.53-29.05 216.33-24.4 216.33-17.2L216.33-17.2Q216.33-9.7 211.81-4.85 207.28 0 199.33 0ZM199.13-29.3L199.13-29.3 193.98-29.3 193.98-4.35 199.28-4.35Q205.03-4.35 208.03-7.95 211.03-11.55 211.03-17.2L211.03-17.2Q211.03-22.4 207.78-25.85 204.53-29.3 199.13-29.3ZM247.48-33.7L247.48-12.9Q247.48-6.35 244.08-2.95 240.68 0.45 234.68 0.45L234.68 0.45Q228.78 0.45 225.38-2.88 221.98-6.2 221.98-12.5L221.98-12.5 221.98-33.7 227.13-33.7 227.13-12.55Q227.13-8.25 229.21-6.28 231.28-4.3 234.68-4.3L234.68-4.3Q242.33-4.3 242.33-12.8L242.33-12.8 242.33-33.7 247.48-33.7ZM273.63-4.55L273.63 0 254.68 0 254.68-33.7 259.83-33.7 259.83-4.55 273.63-4.55ZM284.18-33.7L284.18 0 279.08 0 279.08-33.7 284.18-33.7ZM297.02-14.1L297.02 0 291.87 0 291.87-33.7 297.97-33.7 306.27-19.6Q308.57-15.65 310.45-12.3 312.32-8.95 313.02-7.6L313.02-7.6 313.72-6.2Q313.42-10.75 313.42-19.55L313.42-19.55 313.42-33.7 318.57-33.7 318.57 0 312.47 0 304.12-14.05Q301.87-17.85 300-21.23 298.12-24.6 297.37-26.1L297.37-26.1 296.62-27.55Q297.02-22.55 297.02-14.1L297.02-14.1ZM352.92-3.1L352.97-2.75Q348.62 0.4 342.07 0.4L342.07 0.4Q334.17 0.4 329.35-4.25 324.52-8.9 324.52-16.9L324.52-16.9Q324.52-24.65 329.4-29.48 334.27-34.3 341.77-34.3L341.77-34.3Q347.62-34.3 351.57-32.05L351.57-32.05 351.57-26.75Q347.27-29.45 341.97-29.45L341.97-29.45Q336.57-29.45 333.25-26 329.92-22.55 329.92-16.9L329.92-16.9Q329.92-11.1 333.2-7.75 336.47-4.4 342.22-4.4L342.22-4.4Q345.22-4.4 347.92-5.5L347.92-5.5 347.92-14.8 341.07-14.8 341.07-19.25 352.97-19.25 352.97-3.1 352.92-3.1ZM380.22-14.25L380.22-14.25 379.67-12.55 390.47-12.55 389.92-14.25Q388.02-20.15 386.82-24.03 385.62-27.9 385.37-28.85L385.37-28.85 385.12-29.8Q384.57-27.45 380.22-14.25ZM378.27-8.25L375.57 0 370.12 0 381.77-33.7 388.52-33.7 400.02 0 394.52 0 391.87-8.25 378.27-8.25ZM415.16-11.95L415.16-11.95 410.36-11.95 410.36 0 405.21 0 405.21-33.7 414.86-33.7Q420.66-33.7 424.06-30.63 427.46-27.55 427.46-22.75 427.46-17.95 424.04-14.95 420.61-11.95 415.16-11.95ZM414.66-29.45L414.66-29.45 410.36-29.45 410.36-16.2 414.76-16.2Q418.41-16.2 420.34-18 422.26-19.8 422.26-22.75L422.26-22.75Q422.26-25.85 420.31-27.65 418.36-29.45 414.66-29.45ZM442.66-11.95L442.66-11.95 437.86-11.95 437.86 0 432.71 0 432.71-33.7 442.36-33.7Q448.16-33.7 451.56-30.63 454.96-27.55 454.96-22.75 454.96-17.95 451.54-14.95 448.11-11.95 442.66-11.95ZM442.16-29.45L442.16-29.45 437.86-29.45 437.86-16.2 442.26-16.2Q445.91-16.2 447.84-18 449.76-19.8 449.76-22.75L449.76-22.75Q449.76-25.85 447.81-27.65 445.86-29.45 442.16-29.45Z" opacity="1" transform="matrix(1,0,0,1,0,0)" fill="#1e90ff" class="undefined-text-0" data-fill-palette-color="primary" id="text-0"></path></svg></g></svg></g><g transform="matrix(1,0,0,1,0,37.42900217739591)"><svg viewBox="0 0 395.52 18.71335042961005" height="18.71335042961005" width="395.52"><g transform="matrix(1,0,0,1,0,0)"><svg width="395.52" viewBox="3.3499999046325684 -34.900001525878906 750.3200073242188 35.5" height="18.71335042961005" data-palette-color="#1e90ff"><path d="M3.35 0L3.35-34.3 8.35-34.3 8.35-19.8 21.25-19.8 21.25-34.3 26.25-34.3 26.25 0 21.25 0 21.25-15.3 8.35-15.3 8.35 0 3.35 0ZM54.25 0L65.2-34.3 71.45-34.3 82.4 0 77.05 0 74.8-7.35 61.5-7.35 59.25 0 54.25 0ZM62.85-11.9L73.4-11.9 69.1-25.95Q68.7-27.25 68.25-30L68.25-30 68.05-30Q67.6-27.15 67.2-25.95L67.2-25.95 62.85-11.9ZM110.41 0L110.41-34.3 124.36-34.3Q129.36-34.3 132.03-31.68 134.71-29.05 134.71-24.7L134.71-24.7Q134.71-21.55 133.11-19.2 131.51-16.85 128.71-15.85L128.71-15.85 135.51 0 129.96 0 123.81-14.9 115.41-14.9 115.41 0 110.41 0ZM115.41-19.4L124.01-19.4Q126.51-19.4 127.93-20.85 129.36-22.3 129.36-24.7L129.36-24.7Q129.36-27.05 128.01-28.4 126.66-29.75 124.06-29.75L124.06-29.75 115.41-29.75 115.41-19.4ZM164.71 0L164.71-34.3 175.51-34.3Q181.81-34.3 185.29-30.05 188.76-25.8 188.76-17.65L188.76-17.65Q188.76-9 185.29-4.5 181.81 0 175.51 0L175.51 0 164.71 0ZM169.71-4.55L175.06-4.55Q179.06-4.55 181.29-7.55 183.51-10.55 183.51-16.4L183.51-16.4 183.51-18.9Q183.51-24.25 181.29-27 179.06-29.75 175.06-29.75L175.06-29.75 169.71-29.75 169.71-4.55ZM255.12 0L255.12-34.3 269.07-34.3Q274.07-34.3 276.75-31.68 279.42-29.05 279.42-24.7L279.42-24.7Q279.42-21.55 277.82-19.2 276.22-16.85 273.42-15.85L273.42-15.85 280.22 0 274.67 0 268.52-14.9 260.12-14.9 260.12 0 255.12 0ZM260.12-19.4L268.72-19.4Q271.22-19.4 272.65-20.85 274.07-22.3 274.07-24.7L274.07-24.7Q274.07-27.05 272.72-28.4 271.37-29.75 268.77-29.75L268.77-29.75 260.12-29.75 260.12-19.4ZM322.03 0.6Q315.48 0.6 311.88-3.88 308.28-8.35 308.28-17.15L308.28-17.15Q308.28-25.95 311.88-30.43 315.48-34.9 322.03-34.9L322.03-34.9Q328.58-34.9 332.18-30.43 335.78-25.95 335.78-17.15L335.78-17.15Q335.78-8.35 332.18-3.88 328.58 0.6 322.03 0.6L322.03 0.6ZM322.03-3.9Q326.08-3.9 328.3-6.98 330.53-10.05 330.53-15.9L330.53-15.9 330.53-18.4Q330.53-24.25 328.3-27.33 326.08-30.4 322.03-30.4L322.03-30.4Q317.98-30.4 315.75-27.33 313.53-24.25 313.53-18.4L313.53-18.4 313.53-15.9Q313.53-10.05 315.75-6.98 317.98-3.9 322.03-3.9L322.03-3.9ZM378.18 0.6Q371.53 0.6 368.08-3.83 364.63-8.25 364.63-17.15L364.63-17.15Q364.63-26.05 368.08-30.48 371.53-34.9 378.18-34.9L378.18-34.9Q383.68-34.9 387.03-31.58 390.38-28.25 390.38-21.8L390.38-21.8 385.23-21.8Q385.23-26 383.33-28.2 381.43-30.4 378.18-30.4L378.18-30.4Q369.88-30.4 369.88-18.4L369.88-18.4 369.88-15.9Q369.88-3.9 378.28-3.9L378.28-3.9Q381.58-3.9 383.51-6.08 385.43-8.25 385.43-12.45L385.43-12.45 390.38-12.45Q390.38-6 387.06-2.7 383.73 0.6 378.18 0.6L378.18 0.6ZM420.34 0L420.34-34.3 425.39-34.3 425.39-16.35 438.64-34.3 444.24-34.3 433.99-20.4 444.59 0 438.89 0 430.84-16.3 425.39-10.05 425.39 0 420.34 0ZM521.05-13.75L521.05-18.1 534.7-18.1 534.7 0 531.45 0 530.45-3.8Q527.35 0.6 521.5 0.6L521.5 0.6Q514.95 0.6 511.5-3.83 508.05-8.25 508.05-17.15L508.05-17.15Q508.05-25.95 511.7-30.43 515.35-34.9 522.05-34.9L522.05-34.9Q525.65-34.9 528.52-33.5 531.4-32.1 533.05-29.3 534.7-26.5 534.7-22.5L534.7-22.5 529.55-22.5Q529.55-26.4 527.5-28.4 525.45-30.4 522-30.4L522-30.4Q517.8-30.4 515.55-27.35 513.3-24.3 513.3-18.4L513.3-18.4 513.3-15.9Q513.3-9.95 515.45-6.93 517.6-3.9 521.85-3.9L521.85-3.9Q525.7-3.9 527.62-6.25 529.55-8.6 529.55-13.2L529.55-13.2 529.55-13.75 521.05-13.75ZM565.8 0L565.8-34.3 579.75-34.3Q584.75-34.3 587.43-31.68 590.1-29.05 590.1-24.7L590.1-24.7Q590.1-21.55 588.5-19.2 586.9-16.85 584.1-15.85L584.1-15.85 590.9 0 585.35 0 579.2-14.9 570.8-14.9 570.8 0 565.8 0ZM570.8-19.4L579.4-19.4Q581.9-19.4 583.33-20.85 584.75-22.3 584.75-24.7L584.75-24.7Q584.75-27.05 583.4-28.4 582.05-29.75 579.45-29.75L579.45-29.75 570.8-29.75 570.8-19.4ZM632.71 0.6Q626.16 0.6 622.56-3.88 618.96-8.35 618.96-17.15L618.96-17.15Q618.96-25.95 622.56-30.43 626.16-34.9 632.71-34.9L632.71-34.9Q639.26-34.9 642.86-30.43 646.46-25.95 646.46-17.15L646.46-17.15Q646.46-8.35 642.86-3.88 639.26 0.6 632.71 0.6L632.71 0.6ZM632.71-3.9Q636.76-3.9 638.98-6.98 641.21-10.05 641.21-15.9L641.21-15.9 641.21-18.4Q641.21-24.25 638.98-27.33 636.76-30.4 632.71-30.4L632.71-30.4Q628.66-30.4 626.43-27.33 624.21-24.25 624.21-18.4L624.21-18.4 624.21-15.9Q624.21-10.05 626.43-6.98 628.66-3.9 632.71-3.9L632.71-3.9ZM688.16 0.6Q682.71 0.6 679.71-2.38 676.71-5.35 676.71-11L676.71-11 676.71-34.3 681.76-34.3 681.76-10.9Q681.76-7.5 683.44-5.7 685.11-3.9 688.16-3.9L688.16-3.9Q691.21-3.9 692.91-5.73 694.61-7.55 694.61-10.9L694.61-10.9 694.61-34.3 699.61-34.3 699.61-11Q699.61-5.35 696.61-2.38 693.61 0.6 688.16 0.6L688.16 0.6ZM731.02 0L731.02-34.3 743.27-34.3Q748.27-34.3 750.97-31.55 753.67-28.8 753.67-24.2L753.67-24.2Q753.67-19.55 750.84-16.73 748.02-13.9 743.27-13.9L743.27-13.9 736.02-13.9 736.02 0 731.02 0ZM736.02-18.4L742.97-18.4Q745.47-18.4 746.94-19.98 748.42-21.55 748.42-24.2L748.42-24.2Q748.42-26.8 746.99-28.28 745.57-29.75 742.97-29.75L742.97-29.75 736.02-29.75 736.02-18.4Z" opacity="1" transform="matrix(1,0,0,1,0,0)" fill="#1e90ff" class="undefined-text-1" data-fill-palette-color="secondary" id="text-1"></path></svg></g></svg></g></svg></g></svg></g><g transform="matrix(1,0,0,1,159.06339431880932,0)"><svg viewBox="0 0 79.37081136238129 77.58873130288224" height="77.58873130288224" width="79.37081136238129"><g><svg xmlns="http://www.w3.org/2000/svg" xmlns:xlink="http://www.w3.org/1999/xlink" version="1.1" baseProfile="basic" x="0" y="0" viewBox="18.8179988861084 18.965999603271484 63.868003845214844 62.43400192260742" xml:space="preserve" height="77.58873130288224" width="79.37081136238129" class="icon-icon-0" data-fill-palette-color="accent" id="icon-0"><g fill="#1e90ff" data-fill-palette-color="accent"><circle cx="38.373" cy="59.574" r="5.4" fill="#1e90ff" data-fill-palette-color="accent"></circle><path d="M41.459 65.939l-0.032-0.065H41.23h-1.312-3.082-1.311-0.23l-1.377 0.163h-0.197c-0.068 0.008-0.129 0.024-0.196 0.032l-0.294 0.034h-0.033c-5.898 0.832-6.427 3.638-6.427 3.638l-0.065 0.524V81.4h23.345V70.266l-0.066-0.524C49.985 69.741 49.363 66.332 41.459 65.939z" fill="#1e90ff" data-fill-palette-color="accent"></path><path d="M69.92 65.939l-0.033-0.065h-0.197-1.311-3.083-1.31-0.23l-1.377 0.163h-0.197c-0.068 0.008-0.129 0.024-0.197 0.032l-0.295 0.034h-0.031c-5.898 0.832-6.428 3.638-6.428 3.638l-0.064 0.524V81.4h23.343V70.266l-0.065-0.524C78.443 69.741 77.822 66.332 69.92 65.939z" fill="#1e90ff" data-fill-palette-color="accent"></path><circle cx="66.835" cy="59.574" r="5.4" fill="#1e90ff" data-fill-palette-color="accent"></circle><circle cx="28.756" cy="35.065" r="4.1" fill="#1e90ff" data-fill-palette-color="accent"></circle><path d="M47.165 38.494l11.05-11.907-9.118 12.896c0.18 0.189 0.342 0.398 0.478 0.633 0.648 1.123 0.648 2.573 0.001 3.695-0.61 1.057-1.689 1.663-2.959 1.663 0 0 0 0-0.001 0H39.47v7.827c2.917 0.494 5.16 2.975 5.29 5.998h15.75c0.145-3.385 2.936-6.095 6.355-6.095 0.32 0 0.631 0.031 0.938 0.077V23.218c0-2.338-1.914-4.252-4.252-4.252H43.722c-2.339 0-4.252 1.914-4.252 4.252v15.233l7.139-0.002C46.799 38.45 46.984 38.468 47.165 38.494z" fill="#1e90ff" data-fill-palette-color="accent"></path><path d="M28.276 66.65V60.4h1.082L29.356 66.1c0.963-0.414 2.18-0.768 3.733-0.986l0.353-0.037c0.081-0.016 0.137-0.025 0.197-0.033l0.566-0.05v-0.65c-1.325-1.167-2.171-2.867-2.171-4.769 0-1.905 0.845-3.613 2.174-4.781l0.003-8.792v-1.944h12.396c2.602 0.008 2.602-4.024 0.002-4.024H33.676v0.004H33.61h-0.209l-9.49-0.004c-3.062 0-4.982 2.499-4.982 5.615v13.288c0 2.582 3.412 2.582 3.412 0V46.001h1.086L23.42 78.975c0 1.301 1.03 2.356 2.317 2.415l0.007-11.245 0.064-0.525C25.86 69.342 26.225 67.881 28.276 66.65z" fill="#1e90ff" data-fill-palette-color="accent"></path><rect x="51.068" y="73.895" width="3.028" height="1.502" fill="#1e90ff" data-fill-palette-color="accent"></rect><rect x="79.658" y="73.895" width="3.028" height="1.502" fill="#1e90ff" data-fill-palette-color="accent"></rect><rect x="18.818" y="73.895" width="3.522" height="1.502" fill="#1e90ff" data-fill-palette-color="accent"></rect></g></svg></g></svg></g><g></g></svg></g></svg></g></svg></g></svg><rect width="395.52" height="247.2" fill="none" stroke="none" visibility="hidden"></rect></g></svg></g></svg>